<?xml version="1.0" encoding="utf-8"?>
<!-- Generator: Adobe Illustrator 15.1.0, SVG Export Plug-In . SVG Version: 6.00 Build 0)  -->
<!DOCTYPE svg PUBLIC "-//W3C//DTD SVG 1.1//EN" "http://www.w3.org/Graphics/SVG/1.1/DTD/svg11.dtd">
<svg version="1.1" id="Layer_1" xmlns="http://www.w3.org/2000/svg" xmlns:xlink="http://www.w3.org/1999/xlink" x="0px" y="0px"
	 width="340.088px" height="369.697px" viewBox="0 0 340.088 369.697" enable-background="new 0 0 340.088 369.697"
	 xml:space="preserve">
<path d="M293.737,78.554c-5.502,7.593-20.426,13.859-38.34,12.157c4.188,3.49,7.873,2.513,15.896,2.805
	c-7.356,4.489-13.08,10.612-25.249,10.289c7.139,3.241-5.279,4.081-8.417,5.609c7.697,23.03-21.204,24.664-37.405,29.926
	c7.936,4.979,19.104,7.393,20.572,16.833c2.271,14.571-15.199,21.212-25.25,28.056c10.708,7.685,24.898,11.886,23.379,31.796
	c-6.427,9.469-15.594,16.201-27.119,20.573c6.41,9.485,19.111,12.682,16.834,30.856c-5.123,7.973-12.988,13.199-22.445,16.836
	c5.381,8.627,15.668,14.09,15.897,27.117c0.228,12.922-8.384,22.344-19.639,27.12c3.248,5.443,9.849,7.771,10.288,14.027
	c1.635,23.346-43.654,21.962-41.148-0.937c0.653-5.961,4.386-7.33,9.352-12.16c-22.148-6.902-25.298-44.387-2.806-53.303
	c-7.153-7.156-20.981-9.375-23.378-19.64c-3.285-14.062,9.318-20.867,16.832-28.991c-10.07-7.895-26.783-11.72-27.12-26.184
	c-0.317-13.695,13.297-19.987,23.379-27.118c-8.73-6.433-25.131-12.495-25.249-25.25c-0.096-10.375,10.598-14.746,20.573-18.704
	c-14.423-7.51-42.569-5.906-38.342-28.99c-2.529-3.705-9.812-2.655-13.092-5.61c0.151-1.096,1.705-0.788,2.806-0.936
	c-10.208-1.326-17.25-5.816-24.314-10.286c4.198-1.725,11.108-0.738,14.962-2.807c-14.385-0.896-27.385-2.94-38.339-11.221
	c4.377-2.168,12.769-0.321,18.703-0.935c-18.601-3.131-33.563-8.503-43.953-19.637c6.957-1.024,15.472,4.468,26.185,2.805
	C27.006,59.438,10.805,51.636,5.708,32.731c6.57,3.093,12.583,6.746,21.509,7.481C14.114,30.872-1.37,23.91,0.097,0
	c18.45,28.902,65.646,33.775,113.155,28.055c14.393,16.157,21.061,40.038,49.564,42.083c2.141-1.6,0.343-7.138,0.935-10.286
	c-4.632-3.696-10.194-4.795-11.222-10.289c-4.058-21.685,37.606-19.61,37.408-2.805c-0.065,5.675-3.57,8.718-10.287,11.223
	c0,3.741,0,7.481,0,11.221c25.475-0.402,34.086-25.761,47.692-41.147C274.135,33.345,322.24,29.734,339.562,0
	c3.753,22.458-13.317,32.193-27.12,40.212c6.122,0.188,16.229-3.71,21.509-7.481c-2.634,16.694-19.085,27.672-40.214,28.99
	c8.525,2.901,17.361-1.956,25.252-2.806c-9.693,11.816-24.588,18.428-44.889,19.638C278.483,80.11,289.354,80.11,293.737,78.554z
	 M124.474,115.026c6.984,11.407,26.431,10.352,40.212,14.962c0-3.741,0-7.482,0-11.223
	C148.27,121.106,138.828,111.646,124.474,115.026z M179.649,118.766c1.197,4.45-2.26,10.539,0.935,11.223
	c12.327-5.443,32.271-3.265,38.341-14.962C204.819,111.584,195.604,120.957,179.649,118.766z M146.917,160.849
	c4.675,4.988,11.162,8.165,18.704,10.286c0.645-8.438-1.58-14.006-0.935-22.444C156.55,150.53,149.092,153.047,146.917,160.849z
	 M179.649,171.135c20.192-4.205,20.668-20.27-0.938-22.444C179.329,155.869,177.476,165.515,179.649,171.135z M163.75,199.189
	c-17.479,6.176-11.89,18.805,2.806,23.379C165.01,215.387,167.516,204.153,163.75,199.189z M178.714,222.568
	c14.403-4.033,16.543-21.059-0.936-23.379C178.396,206.677,176.541,216.637,178.714,222.568z M167.492,271.197
	c-2.785-4.384,0.915-15.254-1.871-19.638C155.076,254.421,157.663,272.699,167.492,271.197z M177.778,272.132
	c10.017-4.045,9.996-17.459-0.938-20.572C177.458,258.115,175.608,267.132,177.778,272.132z M168.426,326.371
	c-2.795-7.488,0.926-21.498-1.87-28.988C155.512,302.597,156.384,326.189,168.426,326.371z M176.843,327.307
	c11.285-4.22,10.623-26.431-0.936-29.925C176.526,307.05,174.667,319.196,176.843,327.307z M168.426,366.585
	c-1.146-6.336,2.357-17.32-1.87-20.576C159.605,349.681,163.324,363.847,168.426,366.585z M175.908,366.585
	c4.11-4.984,9.28-17.559,0-20.576C175.899,352.251,173.364,360.9,175.908,366.585z"/>
</svg>
